<?xml version="1.0" standalone="no"?>
<!DOCTYPE svg PUBLIC "-//W3C//DTD SVG 20010904//EN"
 "http://www.w3.org/TR/2001/REC-SVG-20010904/DTD/svg10.dtd">
<svg version="1.0" xmlns="http://www.w3.org/2000/svg"
 width="256.000000pt" height="256.000000pt" viewBox="0 0 256.000000 256.000000"
 preserveAspectRatio="xMidYMid meet">
<metadata>
Created by potrace 1.11, written by Peter Selinger 2001-2013
</metadata>
<g transform="translate(0.000000,256.000000) scale(0.100000,-0.100000)"
fill="#000000" stroke="none">
<path d="M1195 2548 c-16 -6 -73 -44 -125 -83 -99 -75 -134 -97 -142 -90 -2 2
-20 0 -39 -5 -19 -5 -52 -11 -74 -15 -112 -16 -139 -26 -179 -63 -28 -27 -46
-60 -51 -97 -2 -11 -6 -33 -9 -50 -3 -16 -8 -52 -11 -80 -4 -27 -9 -63 -11
-79 -3 -16 -38 -77 -78 -135 -124 -180 -124 -204 7 -379 42 -57 79 -113 82
-125 10 -49 27 -142 30 -161 10 -82 51 -151 109 -183 18 -10 17 -12 -8 -54
-15 -24 -78 -127 -140 -229 -62 -102 -146 -239 -186 -305 -40 -66 -79 -129
-86 -141 -12 -17 -11 -23 2 -42 18 -27 9 -31 224 98 82 50 156 93 163 96 15 5
18 -10 32 -151 24 -237 27 -250 61 -243 17 3 32 32 82 158 18 46 113 275 127
305 7 17 25 59 40 95 14 36 35 84 46 107 10 24 19 45 19 47 0 2 11 29 25 61
24 53 27 56 43 42 63 -57 169 -67 228 -22 l33 25 16 -31 c22 -41 307 -701 330
-761 17 -46 47 -70 66 -51 9 9 16 49 24 133 2 30 7 84 11 120 4 36 8 79 9 95
2 17 3 36 4 42 1 8 21 1 54 -19 215 -128 322 -188 336 -188 6 0 15 9 20 19 9
16 -29 83 -233 410 l-244 390 33 11 c65 21 107 82 120 170 3 25 8 56 10 70 2
14 7 49 10 78 6 44 19 70 71 145 138 197 138 221 -3 409 -64 84 -80 117 -87
183 -25 208 -77 278 -216 291 -14 1 -38 4 -55 7 -16 3 -52 9 -80 13 -42 5
-107 33 -125 54 -8 9 -143 97 -165 107 -29 13 -85 14 -120 1z m150 -301 c314
-42 536 -338 491 -657 -11 -77 -13 -83 -65 -189 -36 -75 -150 -188 -231 -231
-99 -52 -178 -69 -295 -65 -158 5 -280 58 -391 172 -58 58 -128 175 -138 229
-3 12 -9 38 -14 57 -13 46 -13 171 0 234 15 75 81 202 137 264 92 102 232 174
361 186 30 3 56 7 58 8 3 2 15 1 87 -8z"/>
<path d="M1145 2161 c-92 -26 -152 -59 -220 -122 -279 -262 -170 -729 197
-840 282 -86 571 86 637 381 9 41 7 154 -3 210 -21 107 -128 255 -227 313
-116 68 -265 90 -384 58z"/>
</g>
</svg>
